<svg width="25" height="25" viewBox="0 0 25 25" fill="none" xmlns="http://www.w3.org/2000/svg">
<path fill-rule="evenodd" clip-rule="evenodd" d="M19.786 16.1309C19.7272 15.8065 19.7669 15.4719 19.9 15.1703C20.0268 14.8745 20.2372 14.6223 20.5055 14.4446C20.7738 14.267 21.0882 14.1716 21.41 14.1703H21.5C22.0304 14.1703 22.5391 13.9596 22.9142 13.5845C23.2893 13.2095 23.5 12.7008 23.5 12.1703C23.5 11.6399 23.2893 11.1312 22.9142 10.7561C22.5391 10.381 22.0304 10.1703 21.5 10.1703H21.33C21.0082 10.169 20.6938 10.0737 20.4255 9.89601C20.1572 9.71834 19.9468 9.46609 19.82 9.17032V9.09032C19.6869 8.7887 19.6472 8.45412 19.706 8.12973C19.7648 7.80533 19.9195 7.506 20.15 7.27032L20.21 7.21032C20.396 7.02457 20.5435 6.804 20.6441 6.5612C20.7448 6.3184 20.7966 6.05815 20.7966 5.79532C20.7966 5.53249 20.7448 5.27223 20.6441 5.02944C20.5435 4.78664 20.396 4.56606 20.21 4.38032C20.0243 4.19437 19.8037 4.04685 19.5609 3.9462C19.3181 3.84555 19.0578 3.79375 18.795 3.79375C18.5322 3.79375 18.2719 3.84555 18.0291 3.9462C17.7863 4.04685 17.5657 4.19437 17.38 4.38032L17.32 4.44032C17.0843 4.67086 16.785 4.8255 16.4606 4.88432C16.1362 4.94314 15.8016 4.90343 15.5 4.77032C15.2042 4.64356 14.952 4.43307 14.7743 4.16478C14.5966 3.89649 14.5013 3.58211 14.5 3.26032V3.17032C14.5 2.63989 14.2893 2.13118 13.9142 1.75611C13.5391 1.38103 13.0304 1.17032 12.5 1.17032C11.9696 1.17032 11.4609 1.38103 11.0858 1.75611C10.7107 2.13118 10.5 2.63989 10.5 3.17032V3.34032C10.4987 3.66211 10.4034 3.97649 10.2257 4.24478C10.048 4.51307 9.79577 4.72356 9.5 4.85032H9.42C9.11838 4.98343 8.78381 5.02314 8.45941 4.96432C8.13502 4.9055 7.83568 4.75086 7.6 4.52032L7.54 4.46032C7.35425 4.27437 7.13368 4.12685 6.89088 4.0262C6.64808 3.92555 6.38783 3.87375 6.125 3.87375C5.86217 3.87375 5.60192 3.92555 5.35912 4.0262C5.11632 4.12685 4.89575 4.27437 4.71 4.46032C4.52405 4.64606 4.37653 4.86664 4.27588 5.10944C4.17523 5.35223 4.12343 5.61249 4.12343 5.87532C4.12343 6.13815 4.17523 6.3984 4.27588 6.6412C4.37653 6.884 4.52405 7.10457 4.71 7.29032L4.77 7.35032C5.00054 7.586 5.15519 7.88533 5.214 8.20973C5.27282 8.53413 5.23312 8.8687 5.1 9.17032C4.98572 9.48105 4.78059 9.75022 4.5113 9.94283C4.242 10.1354 3.92099 10.2426 3.59 10.2503H3.5C2.96957 10.2503 2.46086 10.461 2.08579 10.8361C1.71071 11.2112 1.5 11.7199 1.5 12.2503C1.5 12.7808 1.71071 13.2895 2.08579 13.6645C2.46086 14.0396 2.96957 14.2503 3.5 14.2503H3.67C3.99179 14.2516 4.30618 14.347 4.57447 14.5246C4.84276 14.7023 5.05324 14.9545 5.18 15.2503C5.31312 15.5519 5.35282 15.8865 5.294 16.2109C5.23519 16.5353 5.08054 16.8346 4.85 17.0703L4.79 17.1303C4.60405 17.3161 4.45653 17.5366 4.35588 17.7794C4.25523 18.0222 4.20343 18.2825 4.20343 18.5453C4.20343 18.8081 4.25523 19.0684 4.35588 19.3112C4.45653 19.554 4.60405 19.7746 4.79 19.9603C4.97575 20.1463 5.19632 20.2938 5.43912 20.3944C5.68192 20.4951 5.94217 20.5469 6.205 20.5469C6.46783 20.5469 6.72808 20.4951 6.97088 20.3944C7.21368 20.2938 7.43425 20.1463 7.62 19.9603L7.68 19.9003C7.91568 19.6698 8.21502 19.5151 8.53941 19.4563C8.86381 19.3975 9.19838 19.4372 9.5 19.5703C9.81074 19.6846 10.0799 19.8897 10.2725 20.159C10.4651 20.4283 10.5723 20.7493 10.58 21.0803V21.1703C10.58 21.7008 10.7907 22.2095 11.1658 22.5845C11.5409 22.9596 12.0496 23.1703 12.58 23.1703C13.1104 23.1703 13.6191 22.9596 13.9942 22.5845C14.3693 22.2095 14.58 21.7008 14.58 21.1703V21.0003C14.5813 20.6785 14.6766 20.3641 14.8543 20.0959C15.032 19.8276 15.2842 19.6171 15.58 19.4903C15.8816 19.3572 16.2162 19.3175 16.5406 19.3763C16.865 19.4351 17.1643 19.5898 17.4 19.8203L17.46 19.8803C17.6457 20.0663 17.8663 20.2138 18.1091 20.3144C18.3519 20.4151 18.6122 20.4669 18.875 20.4669C19.1378 20.4669 19.3981 20.4151 19.6409 20.3144C19.8837 20.2138 20.1043 20.0663 20.29 19.8803C20.476 19.6946 20.6235 19.474 20.7241 19.2312C20.8248 18.9884 20.8766 18.7281 20.8766 18.4653C20.8766 18.2025 20.8248 17.9422 20.7241 17.6994C20.6235 17.4566 20.476 17.2361 20.29 17.0503L20.23 16.9903C19.9995 16.7546 19.8448 16.4553 19.786 16.1309ZM15.5 12.1703C15.5 13.8272 14.1569 15.1703 12.5 15.1703C10.8431 15.1703 9.5 13.8272 9.5 12.1703C9.5 10.5135 10.8431 9.17032 12.5 9.17032C14.1569 9.17032 15.5 10.5135 15.5 12.1703Z" fill="#F23847"/>
</svg>
