<svg width="151" height="145" viewBox="0 0 151 145" fill="none" xmlns="http://www.w3.org/2000/svg">
<path d="M150.499 29.7517V29.6669C147.742 29.6669 145.196 29.4129 143.244 28.905H143.202C142.014 28.6084 141.123 27.6773 140.784 26.534V26.4918C140.275 24.544 140.02 22.0039 140.02 19.2516H139.936C139.936 22.0035 139.681 24.544 139.172 26.4918V26.534C138.875 27.7195 137.942 28.6087 136.754 28.9475H136.711C134.802 29.4555 132.257 29.7095 129.499 29.7095V29.7939C132.257 29.7939 134.802 30.0479 136.754 30.5559H136.796C137.984 30.8524 138.875 31.7836 139.172 32.9694V33.0116C139.681 34.9594 139.935 37.4995 139.935 40.2518H140.02C140.02 37.4999 140.274 34.9594 140.783 33.0116V32.9694C141.081 31.7839 142.014 30.8947 143.159 30.5559H143.201C145.153 30.0479 147.698 29.7939 150.456 29.7939L150.499 29.7517Z" fill="#EF8D95"/>
<path d="M58.6774 140.375C58.6774 142.475 56.9753 144.177 54.8756 144.177C52.776 144.177 51.0739 142.475 51.0739 140.375C51.0739 138.276 52.776 136.574 54.8756 136.574C56.9753 136.574 58.6774 138.276 58.6774 140.375Z" stroke="#E85C68" stroke-width="0.646555"/>
<path d="M76.621 123.499C102.095 123.499 122.746 102.681 122.746 76.9992C122.746 51.3178 102.095 30.4989 76.621 30.4989C51.1467 30.4989 30.4958 51.3178 30.4958 76.9992C30.4958 102.681 51.1467 123.499 76.621 123.499Z" fill="#FCEBEC"/>
<path d="M76.4601 104.709C91.8009 104.709 104.237 92.2728 104.237 76.9321C104.237 61.5913 91.8009 49.1552 76.4601 49.1552C61.1194 49.1552 48.6833 61.5913 48.6833 76.9321C48.6833 92.2728 61.1194 104.709 76.4601 104.709Z" fill="url(#paint0_linear_72_6373)"/>
<path d="M72.6698 91.3864C72.1902 91.3864 71.7171 91.2747 71.2881 91.0602C70.8591 90.8456 70.4859 90.5341 70.1982 90.1503L62.6203 80.0461C62.3763 79.7216 62.1986 79.3521 62.0975 78.9588C61.9963 78.5656 61.9738 78.1562 62.0309 77.7542C62.0881 77.3521 62.224 76.9653 62.4308 76.6159C62.6376 76.2664 62.9112 75.9611 63.2361 75.7175C63.5609 75.4739 63.9307 75.2967 64.3241 75.196C64.7174 75.0954 65.1269 75.0733 65.5288 75.1309C65.9308 75.1886 66.3174 75.325 66.6666 75.5322C67.0158 75.7394 67.3207 76.0135 67.5639 76.3386L72.5217 82.9485L85.2551 63.8487C85.4796 63.5097 85.7687 63.2183 86.106 62.9913C86.4433 62.7643 86.8221 62.606 87.2206 62.5257C87.6192 62.4453 88.0297 62.4444 88.4286 62.523C88.8275 62.6016 89.207 62.7581 89.5453 62.9837C89.8836 63.2092 90.174 63.4993 90.4 63.8372C90.6259 64.1752 90.783 64.5545 90.8621 64.9533C90.9412 65.3521 90.9409 65.7627 90.861 66.1613C90.7812 66.56 90.6234 66.939 90.3969 67.2766L75.241 90.0105C74.9668 90.4216 74.5981 90.761 74.1657 91.0003C73.7333 91.2395 73.2498 91.3716 72.7558 91.3854C72.7272 91.3859 72.6985 91.3864 72.6698 91.3864Z" fill="white"/>
<path d="M137.002 126.128V126.022C133.555 126.022 130.373 125.704 127.933 125.069H127.88C126.395 124.699 125.282 123.535 124.857 122.106V122.053C124.221 119.618 123.903 116.443 123.903 113.003H123.797C123.797 116.442 123.479 119.618 122.843 122.053V122.106C122.471 123.587 121.305 124.699 119.82 125.122H119.767C117.38 125.757 114.198 126.075 110.751 126.075V126.18C114.198 126.18 117.38 126.498 119.82 127.133H119.873C121.358 127.503 122.471 128.667 122.842 130.15V130.202C123.479 132.637 123.797 135.812 123.797 139.253H123.903C123.903 135.813 124.221 132.637 124.857 130.202V130.15C125.228 128.668 126.395 127.556 127.826 127.133H127.879C130.319 126.498 133.501 126.18 136.948 126.18L137.002 126.128Z" fill="#EF8D95"/>
<path d="M21.5001 111.501V111.416C18.7426 111.416 16.197 111.162 14.2453 110.654H14.203C13.0151 110.358 12.1241 109.427 11.7847 108.284V108.241C11.2757 106.294 11.0212 103.753 11.0212 101.001H10.9365C10.9365 103.753 10.682 106.294 10.173 108.241V108.284C9.87593 109.469 8.94289 110.358 7.7547 110.697H7.71238C5.80305 111.205 3.25743 111.459 0.499985 111.459V111.543C3.25743 111.543 5.80305 111.797 7.75473 112.305H7.79705C8.98493 112.602 9.87593 113.533 10.1727 114.719V114.761C10.6817 116.709 10.9362 119.249 10.9362 122.001H11.0209C11.0209 119.249 11.2754 116.709 11.7844 114.761V114.719C12.0815 113.533 13.0145 112.644 14.1601 112.305H14.2024C16.1541 111.797 18.6993 111.543 21.4571 111.543L21.5001 111.501Z" fill="#EF8D95"/>
<path d="M150.5 85.6247V85.5672C148.629 85.5672 146.901 85.3949 145.577 85.0502H145.548C144.742 84.849 144.138 84.2171 143.907 83.4413V83.4127C143.562 82.091 143.389 80.3673 143.389 78.4997H143.332C143.332 80.3671 143.159 82.091 142.814 83.4127V83.4413C142.612 84.2458 141.979 84.8492 141.173 85.0791H141.144C139.848 85.4238 138.121 85.5961 136.25 85.5961V85.6534C138.121 85.6534 139.848 85.8258 141.173 86.1705H141.202C142.008 86.3717 142.612 87.0035 142.814 87.8082V87.8369C143.159 89.1585 143.332 90.8822 143.332 92.7498H143.389C143.389 90.8825 143.562 89.1585 143.907 87.8369V87.8082C144.109 87.0037 144.742 86.4004 145.519 86.1705H145.548C146.872 85.8258 148.599 85.6534 150.471 85.6534L150.5 85.6247Z" fill="#EF8D95"/>
<path d="M26.0001 18.1247V18.049C23.5381 18.049 21.2652 17.8223 19.5226 17.3687H19.4848C18.4242 17.104 17.6287 16.2726 17.3256 15.2518V15.2141C16.8711 13.4751 16.6439 11.2071 16.6439 8.7497H16.5683C16.5683 11.2068 16.3411 13.4751 15.8866 15.2141V15.2518C15.6214 16.3103 14.7883 17.1042 13.7274 17.4067H13.6896C11.9849 17.8603 9.71199 18.087 7.24998 18.087V18.1625C9.71199 18.1625 11.9849 18.3892 13.7274 18.8428H13.7652C14.8258 19.1075 15.6214 19.9389 15.8864 20.9977V21.0354C16.3408 22.7745 16.5681 25.0424 16.5681 27.4998H16.6436C16.6436 25.0428 16.8709 22.7745 17.3253 21.0354V20.9977C17.5906 19.9392 18.4237 19.1453 19.4465 18.8428H19.4843C21.2268 18.3892 23.4994 18.1625 25.9617 18.1625L26.0001 18.1247Z" fill="#EF8D95"/>
<path d="M85.9985 7.62481V7.56729C84.1274 7.56729 82.4 7.39494 81.0757 7.05025H81.047C80.2409 6.84904 79.6363 6.21718 79.4059 5.44141V5.41275C79.0605 4.09106 78.8879 2.3674 78.8879 0.499788H78.8304C78.8304 2.36715 78.6577 4.09106 78.3123 5.41275V5.44141C78.1107 6.24586 77.4776 6.84924 76.6713 7.07913H76.6426C75.347 7.42383 73.6196 7.59617 71.7485 7.59617V7.65349C73.6196 7.65349 75.347 7.82584 76.6713 8.17053H76.7001C77.5061 8.37174 78.1107 9.00361 78.3121 9.80826V9.83691C78.6575 11.1586 78.8302 12.8823 78.8302 14.7499H78.8876C78.8876 12.8825 79.0603 11.1586 79.4057 9.83691V9.80826C79.6073 9.00381 80.2405 8.40043 81.0178 8.17053H81.0465C82.3709 7.82583 84.098 7.65349 85.9694 7.65349L85.9985 7.62481Z" fill="#EF8D95"/>
<path d="M114.178 14.3734C114.178 16.4731 112.476 18.1752 110.376 18.1752C108.277 18.1752 106.575 16.4731 106.575 14.3734C106.575 12.2738 108.277 10.5717 110.376 10.5717C112.476 10.5717 114.178 12.2738 114.178 14.3734Z" stroke="#E85C68" stroke-width="0.646555"/>
<path d="M137.427 55.6263C137.427 57.726 135.725 59.4281 133.625 59.4281C131.525 59.4281 129.823 57.726 129.823 55.6263C129.823 53.5267 131.525 51.8246 133.625 51.8246C135.725 51.8246 137.427 53.5267 137.427 55.6263Z" stroke="#E85C68" stroke-width="0.646555"/>
<path d="M48.1782 26.3748C48.1782 28.0603 46.8119 29.4266 45.1264 29.4266C43.441 29.4266 42.0747 28.0603 42.0747 26.3748C42.0747 24.6894 43.441 23.3231 45.1264 23.3231C46.8119 23.3231 48.1782 24.6894 48.1782 26.3748Z" stroke="#E85C68" stroke-width="0.646555"/>
<path d="M16.6768 62.7499C16.6768 65.885 14.1352 68.4266 11 68.4266C7.86483 68.4266 5.32326 65.885 5.32326 62.7499C5.32326 59.6147 7.86483 57.0731 11 57.0731C14.1352 57.0731 16.6768 59.6147 16.6768 62.7499Z" stroke="#E85C68" stroke-width="0.646555"/>
<defs>
<linearGradient id="paint0_linear_72_6373" x1="58.6736" y1="61.4088" x2="119.777" y2="80.5937" gradientUnits="userSpaceOnUse">
<stop stop-color="#F5515E"/>
<stop offset="1" stop-color="#990D18"/>
</linearGradient>
</defs>
</svg>
